<svg width="159" height="26" viewBox="0 0 159 26" fill="none" xmlns="http://www.w3.org/2000/svg">
<path d="M53.5487 7.95443C54.6934 7.95443 55.8708 8.70312 55.8708 10.2656V23.0586C55.8708 24.556 54.7261 25.3698 53.5487 25.3698C52.3713 25.3698 51.194 24.556 51.194 23.0586V22.2122C50.3436 24.2305 48.087 25.4674 45.2417 25.4674C40.0743 25.4674 37 21.431 37 16.5807C37 11.5352 40.2378 7.75911 45.5033 7.75911C47.6291 7.75911 49.8858 8.70312 51.194 10.5911V10.2656C51.194 8.70312 52.3713 7.95443 53.5487 7.95443ZM46.4517 21.3333C49.199 21.3333 51.1613 19.3151 51.1613 16.6133C51.1613 13.944 49.199 11.9583 46.4517 11.9583C43.6718 11.9583 41.6768 13.9115 41.6768 16.6133C41.6768 19.3802 43.6718 21.3333 46.4517 21.3333Z" fill="#052D23"/>
<path d="M70.0044 7.79167C75.2045 7.79167 78.2788 11.8607 78.2788 16.6784C78.2788 21.724 75.041 25.5 69.7755 25.5C67.7151 25.5 65.4257 24.6211 64.0848 22.668V23.0586C64.0848 24.5885 62.9074 25.3698 61.7628 25.3698C60.6508 25.3698 59.4407 24.5885 59.4407 23.0586V2.8112C59.4407 1.28125 60.6181 0.5 61.7628 0.5C62.9074 0.5 64.0848 1.28125 64.0848 2.8112V11.0794C64.8697 9.1263 67.0937 7.79167 70.0044 7.79167ZM68.827 21.3333C71.5743 21.3333 73.5693 19.3802 73.5693 16.6458C73.5693 13.9115 71.607 11.9583 68.827 11.9583C66.0798 11.9583 64.1175 13.944 64.1175 16.6458C64.1175 19.3477 66.0798 21.3333 68.827 21.3333Z" fill="#052D23"/>
<path d="M94.768 7.88932C96.0435 7.88932 97.1227 8.96354 97.1227 10.2331V17.3294C97.1227 22.3424 93.7214 25.5 88.8157 25.5C83.9426 25.5 80.5086 22.375 80.5086 17.3294V10.2331C80.5086 8.96354 81.5879 7.88932 82.8633 7.88932C84.1388 7.88932 85.1854 8.96354 85.1854 10.2331V17.3294C85.1854 19.9987 86.7225 21.5286 88.8157 21.5286C90.9088 21.5286 92.4132 19.9987 92.4132 17.3294V10.2331C92.4132 8.96354 93.4925 7.88932 94.768 7.88932Z" fill="#052D23"/>
<path d="M102.123 25.3698C100.848 25.3698 99.7682 24.2956 99.7682 23.026V15.9297C99.7682 10.8841 103.202 7.75911 108.075 7.75911C112.981 7.75911 116.382 10.9167 116.382 15.9297V23.026C116.382 24.2956 115.303 25.3698 114.028 25.3698C112.752 25.3698 111.673 24.2956 111.673 23.026V15.9297C111.673 13.2604 110.168 11.7305 108.075 11.7305C105.982 11.7305 104.445 13.2604 104.445 15.9297V23.026C104.445 24.2956 103.398 25.3698 102.123 25.3698Z" fill="#052D23"/>
<path d="M135.087 0.5C136.231 0.5 137.409 1.28125 137.409 2.8112V23.0586C137.409 24.5885 136.231 25.3698 135.087 25.3698C133.975 25.3698 132.765 24.5885 132.765 23.0586V22.2122C131.914 24.2305 129.658 25.4674 126.812 25.4674C121.645 25.4674 118.571 21.431 118.571 16.5807C118.571 11.5352 121.809 7.75911 127.074 7.75911C129.2 7.75911 131.457 8.70312 132.765 10.5911V2.8112C132.765 1.28125 133.942 0.5 135.087 0.5ZM128.023 21.3333C130.77 21.3333 132.732 19.3151 132.732 16.6133C132.732 13.944 130.77 11.9583 128.023 11.9583C125.243 11.9583 123.248 13.9115 123.248 16.6133C123.248 19.3802 125.243 21.3333 128.023 21.3333Z" fill="#052D23"/>
<path d="M156.678 7.95443C157.823 7.95443 159 8.70312 159 10.2656V23.0586C159 24.556 157.855 25.3698 156.678 25.3698C155.501 25.3698 154.323 24.556 154.323 23.0586V22.2122C153.473 24.2305 151.216 25.4674 148.371 25.4674C143.204 25.4674 140.129 21.431 140.129 16.5807C140.129 11.5352 143.367 7.75911 148.633 7.75911C150.758 7.75911 153.015 8.70312 154.323 10.5911V10.2656C154.323 8.70312 155.501 7.95443 156.678 7.95443ZM149.581 21.3333C152.328 21.3333 154.29 19.3151 154.29 16.6133C154.29 13.944 152.328 11.9583 149.581 11.9583C146.801 11.9583 144.806 13.9115 144.806 16.6133C144.806 19.3802 146.801 21.3333 149.581 21.3333Z" fill="#052D23"/>
<path d="M14.0264 13.0567C14.0264 12.147 14.7639 11.4095 15.6736 11.4095H22.5982C26.4716 11.4095 29.6115 14.5495 29.6115 18.4229C29.6115 22.2962 26.4716 25.4362 22.5982 25.4362H15.6736C14.7639 25.4362 14.0264 24.6987 14.0264 23.789V13.0567Z" fill="#052D23"/>
<path d="M14.0264 2.05851C14.0264 1.19777 14.7241 0.5 15.5849 0.5H17.9227C20.0745 0.5 21.8189 2.24443 21.8189 4.39629C21.8189 6.54814 20.0745 8.29257 17.9227 8.29257H15.5849C14.7241 8.29257 14.0264 7.5948 14.0264 6.73406V2.05851Z" fill="#052D23"/>
<path d="M0 5.9548C0 2.9422 2.4422 0.5 5.4548 0.5C8.46741 0.5 10.9096 2.9422 10.9096 5.9548V12.8041C10.9096 13.7554 10.1384 14.5266 9.18705 14.5266H1.72257C0.77122 14.5266 0 13.7554 0 12.8041V5.9548Z" fill="#052D23"/>
<path d="M9.35108 17.6437H1.55851C0.69777 17.6437 0 18.3414 0 19.2022V23.8777C0 24.7385 0.69777 25.4362 1.55851 25.4362H9.35108C10.2118 25.4362 10.9096 24.7385 10.9096 23.8777V19.2022C10.9096 18.3414 10.2118 17.6437 9.35108 17.6437Z" fill="#052D23"/>
</svg>
