<svg width="24" height="24" viewBox="0 0 24 24" fill="none" xmlns="http://www.w3.org/2000/svg">
<path d="M23.9917 11.4608C23.88 8.40254 22.5913 5.50574 20.3946 3.37517C18.1978 1.2446 15.263 0.044994 12.2028 0.0268587H12.145C10.0842 0.0253278 8.05859 0.560358 6.26732 1.5793C4.47608 2.59824 2.98098 4.06598 1.92915 5.83811C0.877309 7.61023 0.304979 9.62571 0.268465 11.6861C0.231952 13.7466 0.732514 15.781 1.7209 17.5893L0.671388 23.8695C0.66968 23.8824 0.670733 23.8955 0.674485 23.9079C0.678228 23.9204 0.68459 23.9319 0.693131 23.9417C0.701672 23.9515 0.7122 23.9593 0.724013 23.9648C0.735827 23.9702 0.748662 23.973 0.761657 23.9731H0.779712L6.99132 22.5914C8.59627 23.3619 10.3538 23.7617 12.1342 23.7612C12.2473 23.7612 12.3604 23.7612 12.4736 23.7612C14.0396 23.7165 15.5814 23.3621 17.0097 22.7185C18.4381 22.0748 19.7248 21.1546 20.7956 20.011C21.8665 18.8674 22.7003 17.5231 23.2489 16.0555C23.7974 14.588 24.0499 13.0264 23.9917 11.4608ZM12.4146 21.6971C12.3207 21.6971 12.2268 21.6971 12.1342 21.6971C10.5607 21.6991 9.00982 21.3225 7.61236 20.5995L7.29462 20.4333L3.08214 21.4287L3.85964 17.1668L3.67911 16.8611C2.81685 15.3911 2.3524 13.7217 2.33153 12.0175C2.31066 10.3133 2.73406 8.63298 3.56006 7.14221C4.38606 5.65141 5.58613 4.40149 7.04211 3.51556C8.49809 2.62961 10.1597 2.13822 11.8634 2.08978C11.9581 2.08978 12.0531 2.08978 12.1486 2.08978C14.7208 2.0974 17.187 3.11518 19.016 4.92383C20.8449 6.73248 21.8902 9.18726 21.9265 11.7592C21.9627 14.3311 20.9872 16.8144 19.2101 18.6739C17.4329 20.5335 14.9964 21.6205 12.4254 21.7007L12.4146 21.6971Z" fill="#052D23"/>
<path d="M8.00811 6.16511C7.86148 6.16797 7.71689 6.20023 7.58293 6.25997C7.44897 6.31972 7.32835 6.40574 7.22823 6.51294C6.94539 6.803 6.15464 7.50107 6.10891 8.96703C6.06318 10.4329 7.08741 11.8833 7.23063 12.0867C7.37386 12.29 9.18882 15.4567 12.1785 16.7408C13.9357 17.4979 14.706 17.6279 15.2055 17.6279C15.4113 17.6279 15.5666 17.6062 15.729 17.5966C16.2766 17.5629 17.5127 16.9298 17.7823 16.2414C18.0519 15.5529 18.07 14.9512 17.9989 14.8308C17.928 14.7104 17.733 14.6238 17.4393 14.4697C17.1457 14.3156 15.705 13.5454 15.4341 13.4371C15.3337 13.3903 15.2256 13.3622 15.1152 13.354C15.0433 13.3578 14.9733 13.379 14.9115 13.416C14.8496 13.4529 14.7977 13.5043 14.7601 13.5658C14.5195 13.8655 13.967 14.5166 13.7816 14.7045C13.7411 14.7511 13.6913 14.7887 13.6353 14.8148C13.5793 14.8409 13.5184 14.855 13.4567 14.8561C13.3428 14.8511 13.2315 14.8211 13.1305 14.7682C12.2578 14.3976 11.4622 13.8669 10.7848 13.2036C10.1518 12.5797 9.61474 11.8655 9.19121 11.0841C9.02758 10.7808 9.19121 10.6243 9.34048 10.4823C9.48974 10.3403 9.64978 10.1441 9.80384 9.97436C9.93027 9.82941 10.0356 9.66737 10.1168 9.49296C10.1588 9.41203 10.18 9.32191 10.1785 9.23075C10.1771 9.13952 10.153 9.0502 10.1084 8.97062C10.0374 8.81896 9.50658 7.32776 9.25746 6.72958C9.05528 6.21807 8.81454 6.20122 8.60389 6.18557C8.4306 6.17354 8.23201 6.16752 8.03341 6.1615H8.00811" fill="#052D23"/>
</svg>
